<svg width="127" height="132" viewBox="0 0 127 132" fill="none" xmlns="http://www.w3.org/2000/svg">
<path d="M8.67001 70.29C44.2 62.01 79.6 53.75 115.12 45.47C114.81 46.77 114.54 47.98 114.25 49.18C113.19 53.6 112.12 58.02 111.07 62.44C110.96 62.92 110.76 63.15 110.24 63.27C89.23 68.17 68.23 73.1 47.22 78.02C40.47 79.6 33.72 81.19 26.96 82.75C26.69 82.81 26.31 82.75 26.08 82.6C20.44 78.64 14.81 74.65 9.17001 70.67C9.04001 70.58 8.92001 70.47 8.67001 70.27V70.29Z" fill="#FB99A9"/>
<path d="M126.06 0C125.69 1.57 125.35 3.01 125.01 4.44C123.33 11.43 121.65 18.42 119.98 25.42C119.86 25.91 119.65 26.15 119.16 26.27C104.85 29.78 90.55 33.3 76.25 36.83C58.88 41.11 41.52 45.39 24.15 49.66C16.4 51.57 8.65002 53.48 0.910019 55.39C0.800019 55.42 0.690009 55.42 0.540009 55.32C42.32 36.9 84.12 18.48 126.06 0Z" fill="#FB99A9"/>
<path d="M106.9 79.71C105.6 85.11 104.26 90.35 103.13 95.63C102.79 97.2 102.11 97.75 100.6 98.07C87.38 100.94 74.19 103.9 60.98 106.82C60.7 106.88 60.31 106.82 60.08 106.66C54.25 102.56 48.43 98.44 42.61 94.33C42.52 94.27 42.44 94.18 42.25 94.02C63.83 89.24 85.31 84.49 106.9 79.72V79.71Z" fill="#FB99A9"/>
<path d="M75.12 117.31C83.21 115.56 91.09 113.86 99.11 112.12C97.59 118.45 96.09 124.68 94.56 131.05C88.1 126.48 81.69 121.95 75.12 117.31Z" fill="#FB99A9"/>
</svg>
