<svg width="366" height="108" viewBox="0 0 366 108" fill="none" xmlns="http://www.w3.org/2000/svg">
<path d="M6 57.9609C35.3719 51.3019 64.6364 44.659 94 38C93.7437 39.0455 93.5205 40.0186 93.2808 40.9837C92.4045 44.5383 91.52 48.093 90.6519 51.6477C90.561 52.0337 90.3957 52.2187 89.9658 52.3152C72.5973 56.2559 55.237 60.2207 37.8685 64.1775C32.2884 65.4482 26.7083 66.7269 21.12 67.9815C20.8968 68.0298 20.5826 67.9815 20.3925 67.8609C15.73 64.6761 11.0758 61.4673 6.41334 58.2665C6.30587 58.1941 6.20667 58.1056 6 57.9448V57.9609Z" fill="white"/>
<path d="M103 0C102.696 1.30343 102.417 2.49894 102.138 3.68615C100.76 9.48933 99.3812 15.2925 98.0108 21.104C97.9124 21.5108 97.74 21.7101 97.338 21.8097C85.5954 24.7237 73.861 27.6461 62.1266 30.5767C47.873 34.1301 33.6276 37.6834 19.374 41.2284C13.0145 42.8141 6.65495 44.3998 0.303617 45.9855C0.213352 46.0104 0.123088 46.0104 0 45.9274C34.2841 30.6349 68.5846 15.3423 103 0Z" fill="white"/>
<path d="M87 66C85.9343 70.3785 84.8357 74.6272 83.9094 78.9083C83.6306 80.1813 83.0732 80.6273 81.8353 80.8868C70.9975 83.2138 60.1844 85.6139 49.3548 87.9815C49.1253 88.0301 48.8056 87.9815 48.617 87.8518C43.8376 84.5274 39.0664 81.1868 34.2951 77.8543C34.2213 77.8056 34.1558 77.7327 34 77.6029C51.6913 73.7272 69.3005 69.8758 87 66.0081V66Z" fill="white"/>
<path d="M62 96.3867C68.4073 94.9075 74.6482 93.4707 81 92C79.7962 97.3502 78.6082 102.616 77.3964 108C72.2801 104.137 67.2034 100.309 62 96.3867Z" fill="white"/>
<path d="M137.989 54.1061C137.989 55.6725 137.684 56.9959 137.073 58.0762C136.462 59.1295 135.652 59.9802 134.643 60.6284C133.634 61.2765 132.479 61.7491 131.177 62.0462C129.903 62.3163 128.588 62.4513 127.234 62.4513H116V33.7697H127.234C128.322 33.7697 129.438 33.8912 130.58 34.1343C131.722 34.3504 132.757 34.742 133.687 35.3091C134.616 35.8493 135.373 36.592 135.958 37.5372C136.542 38.4825 136.834 39.6843 136.834 41.1427C136.834 42.7361 136.409 44.0594 135.559 45.1127C134.709 46.139 133.594 46.8817 132.213 47.3408V47.4218C133.01 47.5569 133.753 47.8134 134.444 48.1915C135.161 48.5426 135.772 49.0018 136.276 49.5689C136.807 50.1361 137.219 50.7977 137.511 51.5539C137.83 52.3101 137.989 53.1609 137.989 54.1061ZM130.261 42.0744C130.261 41.1022 129.889 40.4 129.146 39.9679C128.429 39.5087 127.353 39.2792 125.919 39.2792H122.573V45.1937H126.238C127.512 45.1937 128.495 44.9372 129.185 44.424C129.903 43.8839 130.261 43.1007 130.261 42.0744ZM131.177 53.4579C131.177 52.2696 130.739 51.4459 129.863 50.9868C128.986 50.5277 127.818 50.2981 126.357 50.2981H122.573V56.8608H126.397C126.928 56.8608 127.473 56.8203 128.03 56.7393C128.615 56.6313 129.132 56.4557 129.584 56.2127C130.062 55.9696 130.447 55.632 130.739 55.1999C131.031 54.7408 131.177 54.1601 131.177 53.4579Z" fill="white"/>
<path d="M171.891 47.989C171.891 50.2576 171.505 52.3371 170.735 54.2276C169.965 56.0911 168.89 57.6981 167.509 59.0484C166.154 60.3718 164.534 61.3981 162.649 62.1272C160.763 62.8564 158.718 63.221 156.514 63.221C154.31 63.221 152.265 62.8564 150.379 62.1272C148.52 61.3981 146.9 60.3718 145.52 59.0484C144.165 57.6981 143.103 56.0911 142.333 54.2276C141.563 52.3371 141.177 50.2576 141.177 47.989C141.177 45.6934 141.563 43.6273 142.333 41.7908C143.103 39.9273 144.165 38.3474 145.52 37.0511C146.9 35.7547 148.52 34.7555 150.379 34.0533C152.265 33.3511 154.31 33 156.514 33C158.718 33 160.763 33.3511 162.649 34.0533C164.534 34.7555 166.154 35.7547 167.509 37.0511C168.89 38.3474 169.965 39.9273 170.735 41.7908C171.505 43.6273 171.891 45.6934 171.891 47.989ZM164.601 47.989C164.601 46.7467 164.401 45.5853 164.003 44.5051C163.605 43.4248 163.047 42.5065 162.33 41.7503C161.64 40.9671 160.79 40.3595 159.781 39.9273C158.798 39.4682 157.709 39.2387 156.514 39.2387C155.319 39.2387 154.23 39.4682 153.248 39.9273C152.265 40.3595 151.415 40.9671 150.698 41.7503C149.981 42.5065 149.423 43.4248 149.025 44.5051C148.653 45.5853 148.467 46.7467 148.467 47.989C148.467 49.2853 148.667 50.4872 149.065 51.5944C149.463 52.6747 150.008 53.6065 150.698 54.3897C151.415 55.1729 152.265 55.7941 153.248 56.2532C154.23 56.6853 155.319 56.9014 156.514 56.9014C157.709 56.9014 158.798 56.6853 159.781 56.2532C160.763 55.7941 161.613 55.1729 162.33 54.3897C163.047 53.6065 163.605 52.6747 164.003 51.5944C164.401 50.4872 164.601 49.2853 164.601 47.989Z" fill="white"/>
<path d="M200.277 51.635C200.277 53.3634 199.984 54.9433 199.4 56.3747C198.843 57.7791 198.033 58.9944 196.97 60.0207C195.908 61.02 194.62 61.8032 193.106 62.3703C191.619 62.9375 189.959 63.221 188.127 63.221C186.268 63.221 184.595 62.9375 183.108 62.3703C181.62 61.8032 180.359 61.02 179.323 60.0207C178.288 58.9944 177.491 57.7791 176.933 56.3747C176.375 54.9433 176.097 53.3634 176.097 51.635V33.7697H182.869V51.0678C182.869 51.851 182.962 52.5937 183.147 53.2959C183.36 53.9981 183.665 54.6328 184.064 55.1999C184.489 55.7401 185.033 56.1722 185.697 56.4963C186.387 56.8203 187.211 56.9824 188.167 56.9824C189.123 56.9824 189.933 56.8203 190.597 56.4963C191.287 56.1722 191.845 55.7401 192.27 55.1999C192.695 54.6328 193 53.9981 193.186 53.2959C193.372 52.5937 193.465 51.851 193.465 51.0678V33.7697H200.277V51.635Z" fill="white"/>
<path d="M205.785 62.4513V33.7697H212.637V62.4513H205.785Z" fill="white"/>
<path d="M233.365 41.2237C232.781 40.4675 232.011 39.8733 231.055 39.4412C230.126 38.9821 229.223 38.7525 228.346 38.7525C227.895 38.7525 227.43 38.793 226.952 38.8741C226.5 38.9551 226.089 39.1171 225.717 39.3602C225.345 39.5762 225.027 39.8733 224.761 40.2514C224.522 40.6025 224.403 41.0616 224.403 41.6288C224.403 42.1149 224.495 42.52 224.681 42.8441C224.894 43.1682 225.186 43.4518 225.558 43.6948C225.956 43.9379 226.421 44.1675 226.952 44.3835C227.483 44.5726 228.081 44.7751 228.745 44.9912C229.701 45.3153 230.696 45.6799 231.732 46.085C232.768 46.4631 233.711 46.9762 234.561 47.6244C235.41 48.2726 236.114 49.0828 236.672 50.055C237.229 51.0003 237.508 52.1886 237.508 53.62C237.508 55.2674 237.203 56.6988 236.592 57.9141C236.008 59.1024 235.211 60.0882 234.202 60.8714C233.193 61.6546 232.038 62.2353 230.736 62.6134C229.435 62.9915 228.094 63.1805 226.713 63.1805C224.695 63.1805 222.743 62.8294 220.857 62.1272C218.972 61.3981 217.405 60.3718 216.157 59.0484L220.618 54.4302C221.309 55.2944 222.212 56.0236 223.327 56.6178C224.469 57.1849 225.598 57.4685 226.713 57.4685C227.218 57.4685 227.709 57.4145 228.187 57.3065C228.665 57.1984 229.077 57.0229 229.422 56.7798C229.794 56.5368 230.086 56.2127 230.298 55.8076C230.511 55.4025 230.617 54.9163 230.617 54.3492C230.617 53.809 230.484 53.3499 230.218 52.9718C229.953 52.5937 229.568 52.2561 229.063 51.959C228.585 51.635 227.974 51.3514 227.231 51.1083C226.514 50.8382 225.691 50.5547 224.761 50.2576C223.858 49.9605 222.968 49.6094 222.092 49.2043C221.242 48.7992 220.472 48.2861 219.782 47.6649C219.118 47.0167 218.573 46.247 218.148 45.3558C217.75 44.4375 217.551 43.3302 217.551 42.0339C217.551 40.4405 217.87 39.0766 218.507 37.9423C219.144 36.808 219.981 35.8763 221.017 35.1471C222.052 34.4179 223.221 33.8912 224.522 33.5672C225.823 33.2161 227.138 33.0405 228.466 33.0405C230.059 33.0405 231.679 33.3376 233.326 33.9317C234.999 34.5259 236.459 35.4036 237.708 36.5649L233.365 41.2237Z" fill="white"/>
<path d="M256.901 41.2237C256.317 40.4675 255.547 39.8733 254.591 39.4412C253.661 38.9821 252.758 38.7525 251.882 38.7525C251.43 38.7525 250.966 38.793 250.487 38.8741C250.036 38.9551 249.624 39.1171 249.253 39.3602C248.881 39.5762 248.562 39.8733 248.297 40.2514C248.058 40.6025 247.938 41.0616 247.938 41.6288C247.938 42.1149 248.031 42.52 248.217 42.8441C248.429 43.1682 248.721 43.4518 249.093 43.6948C249.492 43.9379 249.956 44.1675 250.487 44.3835C251.019 44.5726 251.616 44.7751 252.28 44.9912C253.236 45.3153 254.232 45.6799 255.268 46.085C256.303 46.4631 257.246 46.9762 258.096 47.6244C258.946 48.2726 259.65 49.0828 260.207 50.055C260.765 51.0003 261.044 52.1886 261.044 53.62C261.044 55.2674 260.738 56.6988 260.128 57.9141C259.543 59.1024 258.747 60.0882 257.738 60.8714C256.728 61.6546 255.573 62.2353 254.272 62.6134C252.971 62.9915 251.629 63.1805 250.248 63.1805C248.23 63.1805 246.278 62.8294 244.393 62.1272C242.507 61.3981 240.94 60.3718 239.692 59.0484L244.154 54.4302C244.844 55.2944 245.747 56.0236 246.862 56.6178C248.004 57.1849 249.133 57.4685 250.248 57.4685C250.753 57.4685 251.244 57.4145 251.722 57.3065C252.2 57.1984 252.612 57.0229 252.957 56.7798C253.329 56.5368 253.621 56.2127 253.834 55.8076C254.046 55.4025 254.152 54.9163 254.152 54.3492C254.152 53.809 254.02 53.3499 253.754 52.9718C253.488 52.5937 253.103 52.2561 252.599 51.959C252.121 51.635 251.51 51.3514 250.766 51.1083C250.049 50.8382 249.226 50.5547 248.297 50.2576C247.394 49.9605 246.504 49.6094 245.628 49.2043C244.778 48.7992 244.008 48.2861 243.317 47.6649C242.653 47.0167 242.109 46.247 241.684 45.3558C241.286 44.4375 241.086 43.3302 241.086 42.0339C241.086 40.4405 241.405 39.0766 242.042 37.9423C242.68 36.808 243.516 35.8763 244.552 35.1471C245.588 34.4179 246.756 33.8912 248.058 33.5672C249.359 33.2161 250.673 33.0405 252.001 33.0405C253.595 33.0405 255.215 33.3376 256.861 33.9317C258.534 34.5259 259.995 35.4036 261.243 36.5649L256.901 41.2237Z" fill="white"/>
<path d="M265.538 62.4513V33.7697H284.5V39.6438H272.111V45.0317H283.822V50.5817H272.111V56.5368H285.217V62.4513H265.538Z" fill="white"/>
<path d="M304.833 62.4513L298.738 51.0678H296.427V62.4513H289.735V33.7697H300.49C301.845 33.7697 303.159 33.9182 304.434 34.2153C305.735 34.4854 306.891 34.958 307.9 35.6332C308.936 36.3084 309.759 37.1996 310.37 38.3069C310.98 39.4142 311.286 40.7916 311.286 42.439C311.286 44.3835 310.768 46.0175 309.732 47.3408C308.697 48.6642 307.262 49.6094 305.43 50.1766L312.8 62.4513H304.833ZM304.554 42.5605C304.554 41.8854 304.408 41.3452 304.115 40.9401C303.85 40.508 303.491 40.1839 303.04 39.9679C302.615 39.7248 302.124 39.5627 301.566 39.4817C301.035 39.4007 300.517 39.3602 300.012 39.3602H296.387V46.0445H299.614C300.172 46.0445 300.743 46.004 301.327 45.9229C301.911 45.8149 302.442 45.6394 302.92 45.3963C303.398 45.1532 303.784 44.8021 304.076 44.343C304.394 43.8839 304.554 43.2897 304.554 42.5605Z" fill="white"/>
<path d="M316.149 62.4513V33.7697H335.111V39.6438H322.722V45.0317H334.434V50.5817H322.722V56.5368H335.828V62.4513H316.149Z" fill="white"/>
<path d="M358.272 62.4513L346.919 43.6948H346.799L346.959 62.4513H340.346V33.7697H348.114L359.427 52.4857H359.547L359.387 33.7697H366V62.4513H358.272Z" fill="white"/>
<path d="M121.833 85.567H120.526V73.6718H116.221V72.4896H126.138V73.6718H121.833V85.567Z" fill="white"/>
<path d="M126.364 78.8251C126.364 78.5912 126.358 78.2895 126.346 77.9201C126.334 77.5506 126.316 77.2182 126.292 76.9226H127.472C127.497 77.1566 127.515 77.4152 127.527 77.6984C127.539 77.9816 127.545 78.2156 127.545 78.4003H127.581C127.823 77.8954 128.187 77.4891 128.671 77.1812C129.155 76.8611 129.7 76.701 130.306 76.701C130.463 76.701 130.602 76.7071 130.723 76.7195C130.857 76.7318 130.99 76.7564 131.123 76.7933L130.96 77.9755C130.887 77.9508 130.766 77.9262 130.596 77.9016C130.427 77.877 130.257 77.8647 130.088 77.8647C129.761 77.8647 129.446 77.9262 129.143 78.0494C128.841 78.1725 128.574 78.3695 128.344 78.6404C128.126 78.899 127.945 79.2377 127.799 79.6563C127.666 80.0627 127.599 80.5552 127.599 81.134V85.567H126.364V78.8251Z" fill="white"/>
<path d="M138.055 79.9888C138.055 79.2377 137.861 78.6774 137.473 78.308C137.086 77.9385 136.523 77.7538 135.784 77.7538C135.276 77.7538 134.803 77.8462 134.368 78.0309C133.932 78.2156 133.562 78.4619 133.26 78.7697L132.569 77.9385C132.921 77.5814 133.381 77.2859 133.95 77.0519C134.531 76.818 135.185 76.701 135.911 76.701C136.371 76.701 136.801 76.7687 137.201 76.9042C137.601 77.0273 137.952 77.2182 138.254 77.4768C138.557 77.7354 138.793 78.0617 138.963 78.4557C139.132 78.8498 139.217 79.3115 139.217 79.841V83.6276C139.217 83.96 139.229 84.3048 139.253 84.6619C139.278 85.019 139.314 85.3207 139.362 85.567H138.254C138.218 85.3577 138.188 85.1299 138.164 84.8836C138.139 84.6373 138.127 84.3972 138.127 84.1632H138.091C137.703 84.742 137.261 85.1606 136.765 85.4192C136.281 85.6655 135.693 85.7886 135.003 85.7886C134.676 85.7886 134.337 85.7394 133.986 85.6409C133.647 85.5547 133.332 85.4069 133.042 85.1976C132.763 84.9882 132.527 84.7173 132.333 84.3849C132.152 84.0524 132.061 83.646 132.061 83.1658C132.061 82.5008 132.224 81.9775 132.551 81.5958C132.89 81.2017 133.338 80.9123 133.895 80.7276C134.452 80.5306 135.088 80.4075 135.802 80.3582C136.529 80.2966 137.28 80.2659 138.055 80.2659V79.9888ZM137.691 81.2448C137.183 81.2448 136.668 81.2694 136.147 81.3187C135.639 81.3556 135.173 81.4418 134.749 81.5773C134.337 81.7004 133.998 81.8851 133.732 82.1314C133.465 82.3777 133.332 82.704 133.332 83.1104C133.332 83.4182 133.387 83.6768 133.496 83.8861C133.617 84.0955 133.774 84.2679 133.968 84.4033C134.162 84.5265 134.374 84.6188 134.604 84.6804C134.846 84.7296 135.088 84.7543 135.33 84.7543C135.766 84.7543 136.154 84.6804 136.493 84.5326C136.832 84.3725 137.116 84.1632 137.346 83.9046C137.576 83.6337 137.752 83.3259 137.873 82.9811C137.994 82.6363 138.055 82.273 138.055 81.8913V81.2448H137.691Z" fill="white"/>
<path d="M145.886 85.567H144.524L141.055 76.9226H142.435L145.196 84.2371H145.232L148.011 76.9226H149.337L145.886 85.567Z" fill="white"/>
<path d="M156.625 79.9888C156.625 79.2377 156.432 78.6774 156.044 78.308C155.657 77.9385 155.094 77.7538 154.355 77.7538C153.846 77.7538 153.374 77.8462 152.938 78.0309C152.502 78.2156 152.133 78.4619 151.83 78.7697L151.14 77.9385C151.491 77.5814 151.951 77.2859 152.521 77.0519C153.102 76.818 153.756 76.701 154.482 76.701C154.942 76.701 155.372 76.7687 155.772 76.9042C156.171 77.0273 156.522 77.2182 156.825 77.4768C157.128 77.7354 157.364 78.0617 157.534 78.4557C157.703 78.8498 157.788 79.3115 157.788 79.841V83.6276C157.788 83.96 157.8 84.3048 157.824 84.6619C157.848 85.019 157.885 85.3207 157.933 85.567H156.825C156.789 85.3577 156.759 85.1299 156.734 84.8836C156.71 84.6373 156.698 84.3972 156.698 84.1632H156.662C156.274 84.742 155.832 85.1606 155.336 85.4192C154.852 85.6655 154.264 85.7886 153.574 85.7886C153.247 85.7886 152.908 85.7394 152.557 85.6409C152.218 85.5547 151.903 85.4069 151.612 85.1976C151.334 84.9882 151.098 84.7173 150.904 84.3849C150.722 84.0524 150.632 83.646 150.632 83.1658C150.632 82.5008 150.795 81.9775 151.122 81.5958C151.461 81.2017 151.909 80.9123 152.466 80.7276C153.023 80.5306 153.659 80.4075 154.373 80.3582C155.1 80.2966 155.85 80.2659 156.625 80.2659V79.9888ZM156.262 81.2448C155.754 81.2448 155.239 81.2694 154.718 81.3187C154.21 81.3556 153.744 81.4418 153.32 81.5773C152.908 81.7004 152.569 81.8851 152.303 82.1314C152.036 82.3777 151.903 82.704 151.903 83.1104C151.903 83.4182 151.958 83.6768 152.067 83.8861C152.188 84.0955 152.345 84.2679 152.539 84.4033C152.733 84.5265 152.944 84.6188 153.174 84.6804C153.417 84.7296 153.659 84.7543 153.901 84.7543C154.337 84.7543 154.724 84.6804 155.063 84.5326C155.402 84.3725 155.687 84.1632 155.917 83.9046C156.147 83.6337 156.323 83.3259 156.444 82.9811C156.565 82.6363 156.625 82.273 156.625 81.8913V81.2448H156.262Z" fill="white"/>
<path d="M167.145 85.567C167.121 85.333 167.103 85.0744 167.09 84.7912C167.078 84.508 167.072 84.274 167.072 84.0893H167.036C166.794 84.5942 166.4 85.0067 165.855 85.3269C165.311 85.6347 164.735 85.7886 164.13 85.7886C163.052 85.7886 162.241 85.4623 161.696 84.8097C161.163 84.1571 160.897 83.2951 160.897 82.2238V76.9226H162.132V81.7066C162.132 82.1622 162.168 82.5747 162.241 82.9441C162.314 83.3135 162.435 83.6337 162.604 83.9046C162.786 84.1632 163.022 84.3664 163.313 84.5142C163.615 84.6619 163.991 84.7358 164.439 84.7358C164.766 84.7358 165.08 84.6681 165.383 84.5326C165.698 84.3972 165.977 84.194 166.219 83.9231C166.461 83.6399 166.655 83.2889 166.8 82.8703C166.945 82.4393 167.018 81.9344 167.018 81.3556V76.9226H168.253V83.6645C168.253 83.8985 168.259 84.2002 168.271 84.5696C168.283 84.939 168.301 85.2715 168.326 85.567H167.145Z" fill="white"/>
<path d="M173.521 81.097L170.379 76.9226H171.959L174.284 80.2104L176.609 76.9226H178.098L175.01 81.0416L178.389 85.567H176.79L174.266 81.9652L171.669 85.567H170.179L173.521 81.097Z" fill="white"/>
<path d="M186.097 90H184.862V76.9226H186.097V78.4188H186.151C186.502 77.8523 186.968 77.4275 187.55 77.1443C188.143 76.8488 188.742 76.701 189.348 76.701C190.014 76.701 190.613 76.818 191.146 77.0519C191.691 77.2859 192.151 77.6061 192.526 78.0124C192.914 78.4188 193.21 78.899 193.416 79.4531C193.634 80.0073 193.743 80.6045 193.743 81.2448C193.743 81.8851 193.634 82.4824 193.416 83.0365C193.21 83.5906 192.914 84.0709 192.526 84.4772C192.151 84.8836 191.691 85.2037 191.146 85.4377C190.613 85.6717 190.014 85.7886 189.348 85.7886C188.742 85.7886 188.143 85.647 187.55 85.3638C186.968 85.0683 186.502 84.6496 186.151 84.1078H186.097V90ZM192.436 81.2448C192.436 80.7646 192.363 80.3151 192.218 79.8964C192.072 79.4655 191.86 79.096 191.582 78.7882C191.315 78.468 190.982 78.2156 190.583 78.0309C190.183 77.8462 189.729 77.7538 189.221 77.7538C188.748 77.7538 188.313 77.8462 187.913 78.0309C187.513 78.2033 187.168 78.4496 186.878 78.7697C186.587 79.0776 186.357 79.447 186.187 79.878C186.03 80.2966 185.951 80.7523 185.951 81.2448C185.951 81.7374 186.03 82.1991 186.187 82.6301C186.357 83.0488 186.587 83.4121 186.878 83.7199C187.168 84.0278 187.513 84.274 187.913 84.4587C188.313 84.6311 188.748 84.7173 189.221 84.7173C189.729 84.7173 190.183 84.6311 190.583 84.4587C190.982 84.274 191.315 84.0278 191.582 83.7199C191.86 83.3997 192.072 83.0303 192.218 82.6117C192.363 82.1807 192.436 81.7251 192.436 81.2448Z" fill="white"/>
<path d="M202.566 85.567C202.542 85.333 202.524 85.0744 202.512 84.7912C202.5 84.508 202.493 84.274 202.493 84.0893H202.457C202.215 84.5942 201.821 85.0067 201.277 85.3269C200.732 85.6347 200.157 85.7886 199.551 85.7886C198.473 85.7886 197.662 85.4623 197.117 84.8097C196.584 84.1571 196.318 83.2951 196.318 82.2238V76.9226H197.553V81.7066C197.553 82.1622 197.59 82.5747 197.662 82.9441C197.735 83.3135 197.856 83.6337 198.025 83.9046C198.207 84.1632 198.443 84.3664 198.734 84.5142C199.036 84.6619 199.412 84.7358 199.86 84.7358C200.187 84.7358 200.502 84.6681 200.804 84.5326C201.119 84.3972 201.398 84.194 201.64 83.9231C201.882 83.6399 202.076 83.2889 202.221 82.8703C202.366 82.4393 202.439 81.9344 202.439 81.3556V76.9226H203.674V83.6645C203.674 83.8985 203.68 84.2002 203.692 84.5696C203.704 84.939 203.723 85.2715 203.747 85.567H202.566Z" fill="white"/>
<path d="M208.216 84.1078V85.567H206.981V71.603H208.216V78.4188H208.252C208.615 77.8523 209.088 77.4275 209.669 77.1443C210.25 76.8488 210.849 76.701 211.467 76.701C212.133 76.701 212.732 76.818 213.265 77.0519C213.81 77.2859 214.27 77.6061 214.645 78.0124C215.033 78.4188 215.33 78.899 215.535 79.4531C215.753 80.0073 215.862 80.6045 215.862 81.2448C215.862 81.8851 215.753 82.4824 215.535 83.0365C215.33 83.5906 215.033 84.0709 214.645 84.4772C214.27 84.8836 213.81 85.2037 213.265 85.4377C212.732 85.6717 212.133 85.7886 211.467 85.7886C210.849 85.7886 210.25 85.647 209.669 85.3638C209.088 85.0806 208.615 84.6619 208.252 84.1078H208.216ZM214.555 81.2448C214.555 80.7646 214.482 80.3151 214.337 79.8964C214.191 79.4655 213.979 79.096 213.701 78.7882C213.435 78.468 213.102 78.2156 212.702 78.0309C212.302 77.8462 211.848 77.7538 211.34 77.7538C210.868 77.7538 210.432 77.8462 210.032 78.0309C209.632 78.2033 209.287 78.4496 208.997 78.7697C208.706 79.0776 208.476 79.447 208.307 79.878C208.149 80.2966 208.07 80.7523 208.07 81.2448C208.07 81.7374 208.149 82.1991 208.307 82.6301C208.476 83.0488 208.706 83.4121 208.997 83.7199C209.287 84.0278 209.632 84.274 210.032 84.4587C210.432 84.6311 210.868 84.7173 211.34 84.7173C211.848 84.7173 212.302 84.6311 212.702 84.4587C213.102 84.274 213.435 84.0278 213.701 83.7199C213.979 83.3997 214.191 83.0303 214.337 82.6117C214.482 82.1807 214.555 81.7251 214.555 81.2448Z" fill="white"/>
<path d="M219.78 85.567H218.545V71.603H219.78V85.567Z" fill="white"/>
<path d="M224.338 85.567H223.103V76.9226H224.338V85.567ZM224.593 73.5979C224.593 73.8565 224.502 74.072 224.32 74.2444C224.139 74.4044 223.939 74.4845 223.721 74.4845C223.503 74.4845 223.303 74.4044 223.122 74.2444C222.94 74.072 222.849 73.8565 222.849 73.5979C222.849 73.3393 222.94 73.13 223.122 72.9699C223.303 72.7975 223.503 72.7113 223.721 72.7113C223.939 72.7113 224.139 72.7975 224.32 72.9699C224.502 73.13 224.593 73.3393 224.593 73.5979Z" fill="white"/>
<path d="M233.747 78.899C233.541 78.5665 233.238 78.2956 232.839 78.0863C232.451 77.8647 232.027 77.7538 231.567 77.7538C231.071 77.7538 230.623 77.8462 230.223 78.0309C229.824 78.2033 229.479 78.4496 229.188 78.7697C228.909 79.0776 228.691 79.447 228.534 79.878C228.389 80.2966 228.316 80.7523 228.316 81.2448C228.316 81.7374 228.389 82.193 228.534 82.6117C228.691 83.0303 228.909 83.3997 229.188 83.7199C229.466 84.0278 229.805 84.274 230.205 84.4587C230.605 84.6311 231.053 84.7173 231.549 84.7173C232.094 84.7173 232.554 84.6127 232.929 84.4033C233.305 84.194 233.614 83.9231 233.856 83.5906L234.782 84.2925C234.419 84.7481 233.971 85.1114 233.438 85.3823C232.917 85.6532 232.288 85.7886 231.549 85.7886C230.859 85.7886 230.235 85.6778 229.678 85.4562C229.121 85.2222 228.643 84.902 228.243 84.4957C227.856 84.0893 227.553 83.6091 227.335 83.055C227.117 82.5008 227.008 81.8975 227.008 81.2448C227.008 80.5922 227.117 79.9888 227.335 79.4347C227.553 78.8805 227.856 78.4003 228.243 77.9939C228.643 77.5876 229.121 77.2736 229.678 77.0519C230.235 76.818 230.859 76.701 231.549 76.701C232.118 76.701 232.693 76.8303 233.275 77.0889C233.868 77.3352 234.346 77.7046 234.709 78.1971L233.747 78.899Z" fill="white"/>
<path d="M241.23 78.9729C241.048 78.6158 240.77 78.3264 240.394 78.1048C240.031 77.8708 239.613 77.7538 239.141 77.7538C238.923 77.7538 238.705 77.7785 238.487 77.8277C238.269 77.877 238.076 77.957 237.906 78.0678C237.737 78.1787 237.597 78.3203 237.488 78.4927C237.392 78.6651 237.343 78.8682 237.343 79.1022C237.343 79.5086 237.507 79.8226 237.833 80.0442C238.16 80.2535 238.675 80.4321 239.377 80.5799C240.382 80.7892 241.121 81.0971 241.593 81.5034C242.078 81.8975 242.32 82.4331 242.32 83.1104C242.32 83.6029 242.223 84.0216 242.029 84.3664C241.847 84.6989 241.605 84.9759 241.303 85.1976C241 85.4069 240.655 85.5547 240.267 85.6409C239.892 85.7394 239.511 85.7886 239.123 85.7886C238.481 85.7886 237.858 85.6532 237.252 85.3823C236.647 85.1114 236.15 84.6866 235.763 84.1078L236.744 83.369C236.962 83.7507 237.283 84.0709 237.706 84.3294C238.13 84.588 238.596 84.7173 239.105 84.7173C239.371 84.7173 239.626 84.6927 239.868 84.6435C240.11 84.5942 240.322 84.508 240.503 84.3849C240.685 84.2617 240.83 84.1078 240.939 83.9231C241.048 83.7261 241.103 83.4859 241.103 83.2027C241.103 82.7471 240.885 82.4085 240.449 82.1868C240.025 81.9529 239.408 81.7374 238.596 81.5404C238.342 81.4788 238.07 81.4049 237.779 81.3187C237.5 81.2202 237.24 81.0847 236.998 80.9123C236.756 80.7276 236.556 80.4998 236.399 80.2289C236.241 79.958 236.162 79.6194 236.162 79.213C236.162 78.7697 236.247 78.3941 236.417 78.0863C236.586 77.7661 236.81 77.5075 237.089 77.3105C237.379 77.1012 237.706 76.9473 238.07 76.8488C238.433 76.7502 238.808 76.701 239.196 76.701C239.789 76.701 240.364 76.8364 240.921 77.1073C241.478 77.3783 241.896 77.76 242.174 78.2525L241.23 78.9729Z" fill="white"/>
<path d="M252.624 81.6142H248.556V80.5614H252.624V81.6142Z" fill="white"/>
<path d="M263.273 77.9755H261.275V85.567H260.04V77.9755H258.26V76.9226H260.04V74.5584C260.04 73.5733 260.276 72.7975 260.749 72.231C261.221 71.6646 261.947 71.3814 262.928 71.3814C263.086 71.3814 263.255 71.3937 263.437 71.4183C263.618 71.4306 263.788 71.4614 263.945 71.5107L263.727 72.6189C263.594 72.582 263.461 72.5512 263.328 72.5266C263.195 72.5019 263.043 72.4896 262.874 72.4896C262.547 72.4896 262.274 72.545 262.056 72.6559C261.851 72.7667 261.687 72.9268 261.566 73.1361C261.457 73.3331 261.378 73.5671 261.33 73.838C261.294 74.1089 261.275 74.3983 261.275 74.7061V76.9226H263.273V77.9755Z" fill="white"/>
<path d="M273.479 81.2448C273.479 81.8975 273.364 82.5008 273.134 83.055C272.916 83.6091 272.608 84.0893 272.208 84.4957C271.808 84.902 271.33 85.2222 270.773 85.4562C270.216 85.6778 269.605 85.7886 268.939 85.7886C268.285 85.7886 267.679 85.6778 267.122 85.4562C266.565 85.2222 266.087 84.902 265.688 84.4957C265.288 84.0893 264.973 83.6091 264.743 83.055C264.525 82.5008 264.416 81.8975 264.416 81.2448C264.416 80.5922 264.525 79.9888 264.743 79.4347C264.973 78.8805 265.288 78.4003 265.688 77.9939C266.087 77.5876 266.565 77.2736 267.122 77.0519C267.679 76.818 268.285 76.701 268.939 76.701C269.605 76.701 270.216 76.818 270.773 77.0519C271.33 77.2736 271.808 77.5876 272.208 77.9939C272.608 78.4003 272.916 78.8805 273.134 79.4347C273.364 79.9888 273.479 80.5922 273.479 81.2448ZM272.172 81.2448C272.172 80.7646 272.093 80.3151 271.936 79.8964C271.79 79.4655 271.578 79.096 271.3 78.7882C271.021 78.468 270.682 78.2156 270.283 78.0309C269.883 77.8462 269.435 77.7538 268.939 77.7538C268.442 77.7538 267.994 77.8462 267.595 78.0309C267.207 78.2156 266.874 78.468 266.596 78.7882C266.317 79.096 266.099 79.4655 265.942 79.8964C265.796 80.3151 265.724 80.7646 265.724 81.2448C265.724 81.7251 265.796 82.1807 265.942 82.6117C266.099 83.0303 266.317 83.3997 266.596 83.7199C266.874 84.0278 267.207 84.274 267.595 84.4587C267.994 84.6311 268.442 84.7173 268.939 84.7173C269.435 84.7173 269.883 84.6311 270.283 84.4587C270.682 84.274 271.021 84.0278 271.3 83.7199C271.578 83.3997 271.79 83.0303 271.936 82.6117C272.093 82.1807 272.172 81.7251 272.172 81.2448Z" fill="white"/>
<path d="M276.137 78.8251C276.137 78.5912 276.131 78.2895 276.119 77.9201C276.107 77.5506 276.089 77.2182 276.064 76.9226H277.245C277.269 77.1566 277.287 77.4152 277.3 77.6984C277.312 77.9816 277.318 78.2156 277.318 78.4003H277.354C277.596 77.8954 277.959 77.4891 278.444 77.1812C278.928 76.8611 279.473 76.701 280.078 76.701C280.236 76.701 280.375 76.7071 280.496 76.7195C280.629 76.7318 280.763 76.7564 280.896 76.7933L280.732 77.9755C280.66 77.9508 280.539 77.9262 280.369 77.9016C280.2 77.877 280.03 77.8647 279.861 77.8647C279.534 77.8647 279.219 77.9262 278.916 78.0494C278.613 78.1725 278.347 78.3695 278.117 78.6404C277.899 78.899 277.717 79.2377 277.572 79.6563C277.439 80.0627 277.372 80.5552 277.372 81.134V85.567H276.137V78.8251Z" fill="white"/>
<path d="M287.827 79.9888C287.827 79.2377 287.634 78.6774 287.246 78.308C286.859 77.9385 286.296 77.7538 285.557 77.7538C285.048 77.7538 284.576 77.8462 284.14 78.0309C283.704 78.2156 283.335 78.4619 283.032 78.7697L282.342 77.9385C282.693 77.5814 283.153 77.2859 283.723 77.0519C284.304 76.818 284.958 76.701 285.684 76.701C286.144 76.701 286.574 76.7687 286.974 76.9042C287.373 77.0273 287.724 77.2182 288.027 77.4768C288.33 77.7354 288.566 78.0617 288.736 78.4557C288.905 78.8498 288.99 79.3115 288.99 79.841V83.6276C288.99 83.96 289.002 84.3048 289.026 84.6619C289.05 85.019 289.087 85.3207 289.135 85.567H288.027C287.991 85.3577 287.961 85.1299 287.936 84.8836C287.912 84.6373 287.9 84.3972 287.9 84.1632H287.864C287.476 84.742 287.034 85.1606 286.538 85.4192C286.053 85.6655 285.466 85.7886 284.776 85.7886C284.449 85.7886 284.11 85.7394 283.759 85.6409C283.42 85.5547 283.105 85.4069 282.814 85.1976C282.536 84.9882 282.3 84.7173 282.106 84.3849C281.924 84.0524 281.834 83.646 281.834 83.1658C281.834 82.5008 281.997 81.9775 282.324 81.5958C282.663 81.2017 283.111 80.9123 283.668 80.7276C284.225 80.5306 284.861 80.4075 285.575 80.3582C286.302 80.2966 287.052 80.2659 287.827 80.2659V79.9888ZM287.464 81.2448C286.956 81.2448 286.441 81.2694 285.92 81.3187C285.412 81.3556 284.946 81.4418 284.522 81.5773C284.11 81.7004 283.771 81.8851 283.505 82.1314C283.238 82.3777 283.105 82.704 283.105 83.1104C283.105 83.4182 283.159 83.6768 283.268 83.8861C283.39 84.0955 283.547 84.2679 283.741 84.4033C283.934 84.5265 284.146 84.6188 284.376 84.6804C284.619 84.7296 284.861 84.7543 285.103 84.7543C285.539 84.7543 285.926 84.6804 286.265 84.5326C286.604 84.3725 286.889 84.1632 287.119 83.9046C287.349 83.6337 287.525 83.3259 287.646 82.9811C287.767 82.6363 287.827 82.273 287.827 81.8913V81.2448H287.464Z" fill="white"/>
<path d="M292.626 87.3033C292.965 87.7466 293.425 88.1221 294.006 88.43C294.599 88.7378 295.223 88.8917 295.877 88.8917C296.482 88.8917 296.997 88.7994 297.421 88.6147C297.844 88.4423 298.183 88.2022 298.438 87.8943C298.704 87.5865 298.898 87.2232 299.019 86.8045C299.14 86.3982 299.201 85.961 299.201 85.4931V83.8677H299.164C298.837 84.4095 298.371 84.8282 297.766 85.1237C297.172 85.4192 296.567 85.567 295.949 85.567C295.283 85.567 294.678 85.4562 294.133 85.2345C293.6 85.0129 293.14 84.7112 292.753 84.3294C292.377 83.9354 292.081 83.4675 291.863 82.9257C291.657 82.3839 291.554 81.7989 291.554 81.1709C291.554 80.5552 291.657 79.9765 291.863 79.4347C292.081 78.8929 292.377 78.4188 292.753 78.0124C293.14 77.6061 293.6 77.2859 294.133 77.0519C294.678 76.818 295.283 76.701 295.949 76.701C296.567 76.701 297.172 76.8488 297.766 77.1443C298.359 77.4398 298.825 77.8647 299.164 78.4188H299.201V76.9226H300.436V85.4931C300.436 85.961 300.369 86.4598 300.236 86.9893C300.115 87.5187 299.879 88.0051 299.528 88.4484C299.188 88.8917 298.722 89.2612 298.129 89.5567C297.536 89.8522 296.767 90 295.822 90C295.035 90 294.284 89.8461 293.57 89.5382C292.856 89.2304 292.244 88.8056 291.736 88.2637L292.626 87.3033ZM292.862 81.134C292.862 81.5896 292.934 82.0206 293.08 82.427C293.225 82.8333 293.431 83.1904 293.697 83.4983C293.976 83.8061 294.315 84.0524 294.714 84.2371C295.114 84.4095 295.568 84.4957 296.077 84.4957C296.549 84.4957 296.985 84.4156 297.384 84.2556C297.784 84.0955 298.129 83.8677 298.42 83.5721C298.71 83.2766 298.934 82.9257 299.092 82.5193C299.261 82.1006 299.346 81.6389 299.346 81.134C299.346 80.6784 299.261 80.2474 299.092 79.841C298.934 79.4347 298.71 79.0776 298.42 78.7697C298.129 78.4619 297.784 78.2156 297.384 78.0309C296.985 77.8462 296.549 77.7538 296.077 77.7538C295.568 77.7538 295.114 77.8462 294.714 78.0309C294.315 78.2156 293.976 78.4619 293.697 78.7697C293.431 79.0776 293.225 79.4347 293.08 79.841C292.934 80.2474 292.862 80.6784 292.862 81.134Z" fill="white"/>
<path d="M310.132 80.5799C310.095 79.7672 309.835 79.096 309.351 78.5665C308.878 78.0247 308.2 77.7538 307.316 77.7538C306.905 77.7538 306.523 77.8339 306.172 77.9939C305.821 78.1417 305.512 78.3511 305.246 78.622C304.979 78.8806 304.768 79.1822 304.61 79.527C304.453 79.8595 304.362 80.2105 304.338 80.5799H310.132ZM311.385 80.9862C311.385 81.0724 311.385 81.1648 311.385 81.2633C311.385 81.3618 311.379 81.4665 311.367 81.5773H304.32C304.332 82.0083 304.416 82.4146 304.574 82.7964C304.731 83.1781 304.949 83.5106 305.228 83.7938C305.506 84.077 305.833 84.3048 306.208 84.4772C306.584 84.6373 306.989 84.7173 307.425 84.7173C308.067 84.7173 308.618 84.5696 309.078 84.274C309.55 83.9662 309.908 83.6152 310.15 83.2212L311.076 83.96C310.568 84.6127 310.005 85.0806 309.387 85.3638C308.782 85.647 308.128 85.7886 307.425 85.7886C306.796 85.7886 306.208 85.6778 305.664 85.4562C305.131 85.2222 304.671 84.902 304.283 84.4957C303.896 84.0893 303.587 83.6091 303.357 83.055C303.139 82.5008 303.03 81.8975 303.03 81.2448C303.03 80.5922 303.139 79.9888 303.357 79.4347C303.575 78.8805 303.878 78.4003 304.265 77.9939C304.653 77.5876 305.107 77.2736 305.627 77.0519C306.148 76.818 306.711 76.701 307.316 76.701C307.982 76.701 308.57 76.818 309.078 77.0519C309.587 77.2736 310.011 77.5814 310.35 77.9755C310.689 78.3572 310.943 78.8067 311.112 79.3238C311.294 79.841 311.385 80.3952 311.385 80.9862Z" fill="white"/>
<path d="M325.575 84.1078C325.212 84.6619 324.739 85.0806 324.158 85.3638C323.577 85.647 322.978 85.7886 322.36 85.7886C321.694 85.7886 321.089 85.6717 320.544 85.4377C320.011 85.2037 319.551 84.8836 319.163 84.4772C318.788 84.0709 318.491 83.5906 318.273 83.0365C318.068 82.4824 317.965 81.8851 317.965 81.2448C317.965 80.6045 318.068 80.0073 318.273 79.4531C318.491 78.899 318.788 78.4188 319.163 78.0124C319.551 77.6061 320.011 77.2859 320.544 77.0519C321.089 76.818 321.694 76.701 322.36 76.701C322.978 76.701 323.577 76.8488 324.158 77.1443C324.739 77.4275 325.212 77.8523 325.575 78.4188H325.611V71.603H326.846V85.567H325.611V84.1078H325.575ZM319.272 81.2448C319.272 81.7251 319.345 82.1807 319.49 82.6117C319.636 83.0303 319.841 83.3997 320.108 83.7199C320.386 84.0278 320.725 84.274 321.125 84.4587C321.525 84.6311 321.979 84.7173 322.487 84.7173C322.959 84.7173 323.395 84.6311 323.795 84.4587C324.195 84.274 324.54 84.0278 324.83 83.7199C325.121 83.4121 325.345 83.0488 325.502 82.6301C325.672 82.1991 325.757 81.7374 325.757 81.2448C325.757 80.7523 325.672 80.2966 325.502 79.878C325.345 79.447 325.121 79.0776 324.83 78.7697C324.54 78.4496 324.195 78.2033 323.795 78.0309C323.395 77.8462 322.959 77.7538 322.487 77.7538C321.979 77.7538 321.525 77.8462 321.125 78.0309C320.725 78.2156 320.386 78.468 320.108 78.7882C319.841 79.096 319.636 79.4655 319.49 79.8964C319.345 80.3151 319.272 80.7646 319.272 81.2448Z" fill="white"/>
<path d="M331.4 85.567H330.165V76.9226H331.4V85.567ZM331.654 73.5979C331.654 73.8565 331.564 74.072 331.382 74.2444C331.2 74.4044 331.001 74.4845 330.783 74.4845C330.565 74.4845 330.365 74.4044 330.183 74.2444C330.002 74.072 329.911 73.8565 329.911 73.5979C329.911 73.3393 330.002 73.13 330.183 72.9699C330.365 72.7975 330.565 72.7113 330.783 72.7113C331.001 72.7113 331.2 72.7975 331.382 72.9699C331.564 73.13 331.654 73.3393 331.654 73.5979Z" fill="white"/>
<path d="M334.688 78.8251C334.688 78.5912 334.682 78.2895 334.669 77.9201C334.657 77.5506 334.639 77.2182 334.615 76.9226H335.796C335.82 77.1566 335.838 77.4152 335.85 77.6984C335.862 77.9816 335.868 78.2156 335.868 78.4003H335.904C336.147 77.8954 336.51 77.4891 336.994 77.1812C337.479 76.8611 338.023 76.701 338.629 76.701C338.786 76.701 338.926 76.7071 339.047 76.7195C339.18 76.7318 339.313 76.7564 339.446 76.7933L339.283 77.9755C339.21 77.9508 339.089 77.9262 338.92 77.9016C338.75 77.877 338.58 77.8647 338.411 77.8647C338.084 77.8647 337.769 77.9262 337.466 78.0494C337.164 78.1725 336.897 78.3695 336.667 78.6404C336.449 78.899 336.268 79.2377 336.122 79.6563C335.989 80.0627 335.923 80.5552 335.923 81.134V85.567H334.688V78.8251Z" fill="white"/>
<path d="M342.486 85.567H341.251V76.9226H342.486V85.567ZM342.74 73.5979C342.74 73.8565 342.649 74.072 342.468 74.2444C342.286 74.4044 342.086 74.4845 341.868 74.4845C341.65 74.4845 341.451 74.4044 341.269 74.2444C341.087 74.072 340.996 73.8565 340.996 73.5979C340.996 73.3393 341.087 73.13 341.269 72.9699C341.451 72.7975 341.65 72.7113 341.868 72.7113C342.086 72.7113 342.286 72.7975 342.468 72.9699C342.649 73.13 342.74 73.3393 342.74 73.5979Z" fill="white"/>
<path d="M346.227 87.3033C346.566 87.7466 347.027 88.1221 347.608 88.43C348.201 88.7378 348.825 88.8917 349.479 88.8917C350.084 88.8917 350.599 88.7994 351.022 88.6147C351.446 88.4423 351.785 88.2022 352.039 87.8943C352.306 87.5865 352.5 87.2232 352.621 86.8045C352.742 86.3982 352.802 85.961 352.802 85.4931V83.8677H352.766C352.439 84.4095 351.973 84.8282 351.367 85.1237C350.774 85.4192 350.169 85.567 349.551 85.567C348.885 85.567 348.28 85.4562 347.735 85.2345C347.202 85.0129 346.742 84.7112 346.355 84.3294C345.979 83.9354 345.682 83.4675 345.465 82.9257C345.259 82.3839 345.156 81.7989 345.156 81.1709C345.156 80.5552 345.259 79.9765 345.465 79.4347C345.682 78.8929 345.979 78.4188 346.355 78.0124C346.742 77.6061 347.202 77.2859 347.735 77.0519C348.28 76.818 348.885 76.701 349.551 76.701C350.169 76.701 350.774 76.8488 351.367 77.1443C351.961 77.4398 352.427 77.8647 352.766 78.4188H352.802V76.9226H354.037V85.4931C354.037 85.961 353.971 86.4598 353.838 86.9893C353.717 87.5187 353.48 88.0051 353.129 88.4484C352.79 88.8917 352.324 89.2612 351.731 89.5567C351.137 89.8522 350.369 90 349.424 90C348.637 90 347.886 89.8461 347.172 89.5382C346.457 89.2304 345.846 88.8056 345.337 88.2637L346.227 87.3033ZM346.463 81.134C346.463 81.5896 346.536 82.0206 346.681 82.427C346.827 82.8333 347.033 83.1904 347.299 83.4983C347.577 83.8061 347.917 84.0524 348.316 84.2371C348.716 84.4095 349.17 84.4957 349.678 84.4957C350.151 84.4957 350.586 84.4156 350.986 84.2556C351.386 84.0955 351.731 83.8677 352.021 83.5721C352.312 83.2766 352.536 82.9257 352.693 82.5193C352.863 82.1006 352.948 81.6389 352.948 81.134C352.948 80.6784 352.863 80.2474 352.693 79.841C352.536 79.4347 352.312 79.0776 352.021 78.7697C351.731 78.4619 351.386 78.2156 350.986 78.0309C350.586 77.8462 350.151 77.7538 349.678 77.7538C349.17 77.7538 348.716 77.8462 348.316 78.0309C347.917 78.2156 347.577 78.4619 347.299 78.7697C347.033 79.0776 346.827 79.4347 346.681 79.841C346.536 80.2474 346.463 80.6784 346.463 81.134Z" fill="white"/>
<path d="M363.733 80.5799C363.697 79.7672 363.437 79.096 362.952 78.5665C362.48 78.0247 361.802 77.7538 360.918 77.7538C360.506 77.7538 360.125 77.8339 359.774 77.9939C359.423 78.1417 359.114 78.3511 358.848 78.622C358.581 78.8806 358.369 79.1822 358.212 79.527C358.054 79.8595 357.964 80.2105 357.939 80.5799H363.733ZM364.987 80.9862C364.987 81.0724 364.987 81.1648 364.987 81.2633C364.987 81.3618 364.981 81.4665 364.968 81.5773H357.921C357.933 82.0083 358.018 82.4146 358.176 82.7964C358.333 83.1781 358.551 83.5106 358.829 83.7938C359.108 84.077 359.435 84.3048 359.81 84.4772C360.186 84.6373 360.591 84.7173 361.027 84.7173C361.669 84.7173 362.22 84.5696 362.68 84.274C363.152 83.9662 363.509 83.6152 363.752 83.2212L364.678 83.96C364.169 84.6127 363.606 85.0806 362.989 85.3638C362.383 85.647 361.729 85.7886 361.027 85.7886C360.397 85.7886 359.81 85.6778 359.265 85.4562C358.733 85.2222 358.272 84.902 357.885 84.4957C357.497 84.0893 357.189 83.6091 356.959 83.055C356.741 82.5008 356.632 81.8975 356.632 81.2448C356.632 80.5922 356.741 79.9888 356.959 79.4347C357.177 78.8805 357.479 78.4003 357.867 77.9939C358.254 77.5876 358.708 77.2736 359.229 77.0519C359.75 76.818 360.313 76.701 360.918 76.701C361.584 76.701 362.171 76.818 362.68 77.0519C363.189 77.2736 363.612 77.5814 363.951 77.9755C364.29 78.3572 364.545 78.8067 364.714 79.3238C364.896 79.841 364.987 80.3952 364.987 80.9862ZM361.245 75.1494H360.173L361.99 72.4896H363.643L361.245 75.1494Z" fill="white"/>
</svg>
