<svg width="126" height="133" viewBox="0 0 126 133" fill="none" xmlns="http://www.w3.org/2000/svg">
<path d="M8.35986 71.2651C43.8899 62.9851 79.2899 54.7251 114.81 46.4451C114.5 47.7451 114.23 48.9551 113.94 50.1551C112.88 54.5751 111.81 58.9951 110.76 63.4151C110.65 63.8951 110.45 64.1251 109.93 64.2451C88.9199 69.1451 67.9199 74.0751 46.9099 78.9951C40.1599 80.5751 33.4099 82.1651 26.6499 83.7251C26.3799 83.7851 25.9999 83.7251 25.7699 83.5751C20.1299 79.6151 14.4999 75.6251 8.85986 71.6451C8.72986 71.5551 8.60986 71.4451 8.35986 71.2451V71.2651Z" fill="white"/>
<path d="M125.74 0.975098C125.37 2.5451 125.03 3.9851 124.69 5.4151C123.01 12.4051 121.33 19.3951 119.66 26.3951C119.54 26.8851 119.33 27.1251 118.84 27.2451C104.53 30.7551 90.23 34.2751 75.93 37.8051C58.56 42.0851 41.2 46.3651 23.83 50.6351C16.08 52.5451 8.32997 54.4551 0.589971 56.3651C0.479971 56.3951 0.369971 56.3951 0.219971 56.2951C42 37.8751 83.8 19.4551 125.74 0.975098Z" fill="white"/>
<path d="M106.58 80.6851C105.28 86.0851 103.94 91.3251 102.81 96.6051C102.47 98.1751 101.79 98.7251 100.28 99.0451C87.0599 101.915 73.8699 104.875 60.6599 107.795C60.3799 107.855 59.9899 107.795 59.7599 107.635C53.9299 103.535 48.1099 99.4151 42.2899 95.3051C42.1999 95.2451 42.1199 95.1551 41.9299 94.9951C63.5099 90.2151 84.9899 85.4651 106.58 80.6951V80.6851Z" fill="white"/>
<path d="M74.8 118.285C82.89 116.535 90.77 114.835 98.79 113.095C97.27 119.425 95.7701 125.655 94.2401 132.025C87.7801 127.455 81.37 122.925 74.8 118.285Z" fill="white"/>
</svg>
