<svg width="54" height="56" viewBox="0 0 54 56" fill="none" xmlns="http://www.w3.org/2000/svg">
<path d="M3 29.6458C18.0197 26.0943 32.9845 22.5515 48 19C47.869 19.5576 47.7548 20.0766 47.6322 20.5913C47.1841 22.4871 46.7318 24.3829 46.2879 26.2788C46.2414 26.4847 46.1569 26.5833 45.9371 26.6348C37.0554 28.7365 28.178 30.8511 19.2964 32.9613C16.4429 33.639 13.5895 34.321 10.7318 34.9901C10.6177 35.0159 10.457 34.9901 10.3598 34.9258C7.97558 33.2273 5.59558 31.5159 3.21137 29.8088C3.15641 29.7702 3.10568 29.723 3 29.6372V29.6458Z" fill="white"/>
<path d="M54 0C53.8408 0.680053 53.6945 1.3038 53.5483 1.92321C52.8255 4.95096 52.1028 7.97871 51.3843 11.0108C51.3327 11.223 51.2424 11.327 51.0316 11.379C44.8752 12.8993 38.7232 14.424 32.5712 15.9531C25.0985 17.807 17.63 19.6609 10.1573 21.5105C6.82314 22.3378 3.48901 23.1651 0.159178 23.9924C0.111855 24.0054 0.0645315 24.0054 0 23.9621C17.9742 15.9834 35.957 8.0047 54 0Z" fill="white"/>
<path d="M45 34C44.4772 36.1892 43.9383 38.3136 43.4838 40.4542C43.3471 41.0907 43.0736 41.3137 42.4664 41.4434C37.1497 42.6069 31.8452 43.8069 26.5326 44.9907C26.42 45.0151 26.2631 44.9907 26.1706 44.9259C23.826 43.2637 21.4854 41.5934 19.1448 39.9271C19.1086 39.9028 19.0764 39.8663 19 39.8015C27.6787 37.8636 36.3172 35.9379 45 34.0041V34Z" fill="white"/>
<path d="M32 50.1933C35.3722 49.4538 38.6569 48.7353 42 48C41.3664 50.6751 40.7411 53.308 40.1034 56C37.4106 54.0687 34.7386 52.1543 32 50.1933Z" fill="white"/>
</svg>
